<?xml version="1.0" encoding="UTF-8" standalone="no"?>
<!DOCTYPE svg PUBLIC "-//W3C//DTD SVG 1.1//EN" "http://www.w3.org/Graphics/SVG/1.1/DTD/svg11.dtd">
<svg width="100%" height="100%" viewBox="0 0 512 512" version="1.1" xmlns="http://www.w3.org/2000/svg" xmlns:xlink="http://www.w3.org/1999/xlink" xml:space="preserve" xmlns:serif="http://www.serif.com/" style="fill-rule:evenodd;clip-rule:evenodd;stroke-linejoin:round;stroke-miterlimit:2;">
    <g>
        <g>
            <path d="M256,0.084C178.839,0.084 116.063,62.86 116.063,140.021C116.063,190.031 139.918,235.34 185.047,271.051C208.822,289.865 232.378,301.285 244.644,306.541L225.315,344.298C224.019,346.83 224.133,349.854 225.618,352.28C227.101,354.707 229.741,356.186 232.585,356.186L247.831,356.186L247.831,503.747C247.831,508.258 251.488,511.915 255.999,511.915C260.511,511.915 264.167,508.258 264.167,503.747L264.167,356.187L279.412,356.187C282.255,356.187 284.896,354.707 286.379,352.281C287.862,349.855 287.978,346.831 286.681,344.299L267.189,306.216C279.263,300.482 303.047,287.956 327.057,268.311C372.119,231.443 395.938,187.08 395.938,140.021C395.937,62.86 333.161,0.084 256,0.084ZM245.942,339.852L255.999,320.206L266.056,339.852L245.942,339.852ZM317.041,255.399C290.911,276.853 264.4,289.61 255.805,293.465C247.193,290.037 220.811,278.608 194.816,257.95C153.398,225.035 132.398,185.358 132.398,140.021C132.398,71.867 187.846,16.419 256,16.419C324.154,16.419 379.602,71.867 379.602,140.021C379.602,182.498 358.554,221.316 317.041,255.399Z" style="fill:rgb(197,141,21);fill-rule:nonzero;"/>
        </g>
    </g>
    <g>
        <g>
            <path d="M196.366,299.691C193.585,296.14 188.451,295.515 184.9,298.295C162.022,316.208 139.681,326.999 131.925,330.49C123.724,327.221 99.435,316.654 75.256,297.523C36.214,266.629 16.418,229.367 16.418,186.769C16.418,130.845 56.281,82.978 111.205,72.952C115.643,72.142 118.583,67.888 117.773,63.45C116.964,59.012 112.711,56.072 108.271,56.882C45.584,68.326 0.084,122.952 0.084,186.77C0.084,233.938 22.573,276.666 65.12,310.333C87.201,327.805 109.087,338.511 120.776,343.554L101.441,381.325C100.145,383.857 100.259,386.881 101.744,389.307C103.228,391.733 105.868,393.213 108.711,393.213L123.79,393.213L123.79,503.747C123.79,508.258 127.447,511.915 131.958,511.915C136.469,511.915 140.126,508.258 140.126,503.747L140.126,393.214L155.539,393.214C158.383,393.214 161.023,391.734 162.506,389.308C163.99,386.882 164.105,383.857 162.809,381.326L143.308,343.229C154.079,338.08 174.137,327.47 194.97,311.158C198.522,308.376 199.146,303.242 196.366,299.691ZM122.068,376.88L132.125,357.233L142.182,376.88L122.068,376.88Z" style="fill:rgb(197,141,21);fill-rule:nonzero;"/>
        </g>
    </g>
    <g>
        <g>
            <path d="M403.728,56.882C399.296,56.069 395.037,59.012 394.226,63.45C393.416,67.888 396.356,72.141 400.794,72.952C455.717,82.978 495.579,130.846 495.579,186.769C495.579,226.541 475.859,262.9 436.965,294.84C412.618,314.834 387.912,326.783 379.674,330.491C371.588,327.265 347.865,316.944 324.029,298.321C320.474,295.544 315.343,296.173 312.565,299.728C309.788,303.283 310.417,308.416 313.973,311.193C335.677,328.151 357.033,338.59 368.526,343.553L349.19,381.325C347.894,383.857 348.008,386.881 349.492,389.307C350.975,391.734 353.615,393.213 356.459,393.213L371.538,393.213L371.537,503.747C371.537,508.258 375.193,511.915 379.705,511.915C384.216,511.915 387.873,508.258 387.873,503.747L387.874,393.213L403.287,393.213C406.131,393.213 408.771,391.733 410.254,389.307C411.737,386.881 411.853,383.856 410.556,381.325L391.057,343.232C402.566,337.736 424.668,326.01 446.983,307.752C489.463,272.996 511.916,231.161 511.916,186.77C511.915,122.951 466.416,68.326 403.728,56.882ZM369.816,376.88L379.873,357.233L389.93,376.88L369.816,376.88Z" style="fill:rgb(197,141,21);fill-rule:nonzero;"/>
        </g>
    </g>
    <g>
        <g>
            <path d="M24.503,364.9C10.991,364.9 0,375.892 0,389.403C0,402.914 10.991,413.906 24.503,413.906C38.015,413.906 49.006,402.915 49.006,389.403C49.006,375.891 38.014,364.9 24.503,364.9ZM24.503,397.571C19.999,397.571 16.335,393.908 16.335,389.403C16.335,384.899 19.998,381.235 24.503,381.235C29.007,381.235 32.671,384.898 32.671,389.403C32.67,393.907 29.007,397.571 24.503,397.571Z" style="fill:rgb(197,141,21);fill-rule:nonzero;"/>
        </g>
    </g>
    <g>
        <g>
            <path d="M193.979,413.906C180.468,413.906 169.476,424.897 169.476,438.409C169.476,451.921 180.467,462.912 193.979,462.912C207.491,462.912 218.482,451.921 218.482,438.409C218.482,424.897 207.489,413.906 193.979,413.906ZM193.979,446.576C189.475,446.576 185.811,442.913 185.811,438.408C185.811,433.904 189.474,430.24 193.979,430.24C198.483,430.24 202.147,433.903 202.147,438.408C202.147,442.912 198.482,446.576 193.979,446.576Z" style="fill:rgb(197,141,21);fill-rule:nonzero;"/>
        </g>
    </g>
    <g>
        <g>
            <path d="M69.937,462.911C56.426,462.911 45.434,473.902 45.434,487.414C45.434,500.926 56.425,511.917 69.937,511.917C83.448,511.917 94.44,500.926 94.44,487.414C94.44,473.902 83.447,462.911 69.937,462.911ZM69.937,495.581C65.433,495.581 61.769,491.918 61.769,487.413C61.769,482.909 65.432,479.245 69.937,479.245C74.441,479.245 78.104,482.908 78.104,487.413C78.104,491.918 74.44,495.581 69.937,495.581Z" style="fill:rgb(197,141,21);fill-rule:nonzero;"/>
        </g>
    </g>
    <g>
        <g>
            <path d="M442.062,462.911C428.552,462.911 417.559,473.902 417.559,487.414C417.559,500.926 428.551,511.917 442.062,511.917C455.573,511.917 466.565,500.926 466.565,487.414C466.565,473.902 455.572,462.911 442.062,462.911ZM442.062,495.581C437.558,495.581 433.894,491.918 433.894,487.413C433.894,482.909 437.557,479.245 442.062,479.245C446.566,479.245 450.23,482.908 450.23,487.413C450.229,491.918 446.566,495.581 442.062,495.581Z" style="fill:rgb(197,141,21);fill-rule:nonzero;"/>
        </g>
    </g>
    <g>
        <g>
            <path d="M317.853,413.906C304.343,413.906 293.35,424.897 293.35,438.409C293.35,451.921 304.342,462.912 317.853,462.912C331.363,462.912 342.356,451.921 342.356,438.409C342.356,424.897 331.364,413.906 317.853,413.906ZM317.853,446.576C313.349,446.576 309.686,442.913 309.686,438.408C309.686,433.904 313.349,430.24 317.853,430.24C322.357,430.24 326.021,433.903 326.021,438.408C326.021,442.912 322.356,446.576 317.853,446.576Z" style="fill:rgb(197,141,21);fill-rule:nonzero;"/>
        </g>
    </g>
    <g>
        <g>
            <path d="M487.497,364.9C473.987,364.9 462.994,375.891 462.994,389.403C462.994,402.915 473.986,413.906 487.497,413.906C501.008,413.906 512,402.914 512,389.403C512,375.892 501.008,364.9 487.497,364.9ZM487.497,397.571C482.993,397.571 479.329,393.908 479.329,389.403C479.329,384.899 482.992,381.235 487.497,381.235C492.002,381.235 495.665,384.898 495.665,389.403C495.665,393.907 492.002,397.571 487.497,397.571Z" style="fill:rgb(197,141,21);fill-rule:nonzero;"/>
        </g>
    </g>
</svg>
