<?xml version="1.0" encoding="UTF-8" standalone="no"?>
<!DOCTYPE svg PUBLIC "-//W3C//DTD SVG 1.1//EN" "http://www.w3.org/Graphics/SVG/1.1/DTD/svg11.dtd">
<svg width="100%" height="100%" viewBox="0 0 512 512" version="1.1" xmlns="http://www.w3.org/2000/svg" xmlns:xlink="http://www.w3.org/1999/xlink" xml:space="preserve" xmlns:serif="http://www.serif.com/" style="fill-rule:evenodd;clip-rule:evenodd;stroke-linejoin:round;stroke-miterlimit:2;">
    <g>
        <rect x="47.865" y="4.002" width="64.036" height="15.677" style="fill:rgb(197,141,21);"/>
        <rect x="167.945" y="28.019" width="32.021" height="15.677" style="fill:rgb(197,141,21);"/>
        <rect x="159.939" y="4.002" width="48.032" height="15.677" style="fill:rgb(197,141,21);"/>
        <path d="M487.986,196.128L487.986,139.925C487.986,129.519 481.286,120.656 471.975,117.406L471.975,83.721L488.153,83.721L488.153,68.044L440.122,68.044L440.122,83.721L456.299,83.721L456.299,117.405C446.989,120.655 440.289,129.519 440.289,139.924L440.289,196.127L415.94,196.127L415.94,139.925C415.94,129.519 409.24,120.656 399.929,117.406L399.929,83.721L416.107,83.721L416.107,68.044L368.075,68.044L368.075,83.721L384.253,83.721L384.253,117.405C374.943,120.655 368.243,129.519 368.243,139.924L368.243,196.127L343.893,196.127L343.893,139.925C343.893,129.519 337.194,120.656 327.883,117.406L327.883,83.721L344.061,83.721L344.061,68.044L296.029,68.044L296.029,83.721L312.207,83.721L312.207,117.405C302.897,120.655 296.196,129.519 296.196,139.924L296.196,196.127L231.821,196.127L231.821,68.044L223.982,68.044C219.475,68.044 215.81,64.379 215.81,59.872L215.81,52.033L152.101,52.033L152.101,59.872C152.101,64.379 148.436,68.044 143.929,68.044L136.09,68.044L136.09,196.128L119.746,196.128L119.746,98.932L102.013,28.019L57.755,28.019L40.026,98.932L40.026,196.128L0,196.128L0,251.831L512,251.831L512,196.128L487.986,196.128ZM455.964,139.925C455.964,135.418 459.629,131.753 464.135,131.753C468.641,131.753 472.307,135.418 472.307,139.925L472.307,196.128L455.963,196.128L455.963,139.925L455.964,139.925ZM383.917,139.925C383.917,135.418 387.582,131.753 392.088,131.753C396.594,131.753 400.26,135.418 400.26,139.925L400.26,196.128L383.916,196.128L383.916,139.925L383.917,139.925ZM311.87,139.925C311.87,135.418 315.536,131.753 320.042,131.753C324.548,131.753 328.213,135.418 328.213,139.925L328.213,196.128L311.869,196.128L311.869,139.925L311.87,139.925ZM151.766,82.398C158.621,80.006 164.061,74.566 166.453,67.711L201.454,67.711C203.846,74.566 209.286,80.006 216.141,82.398L216.141,124.081L151.765,124.081L151.765,82.398L151.766,82.398ZM151.766,139.759L216.141,139.759L216.141,164.108L151.766,164.108L151.766,139.759ZM151.766,179.785L216.141,179.785L216.141,196.129L151.766,196.129L151.766,179.785ZM55.703,100.862L69.995,43.696L89.775,43.696L104.067,100.862L104.067,124.081L55.703,124.081L55.703,100.862ZM55.703,139.759L104.067,139.759L104.067,156.102L55.703,156.102L55.703,139.759ZM55.703,171.779L104.067,171.779L104.067,196.128L55.703,196.128L55.703,171.779ZM496.324,236.154L15.677,236.154L15.677,211.805L496.324,211.805L496.324,236.154Z" style="fill:rgb(197,141,21);fill-rule:nonzero;"/>
        <rect x="304.033" y="260.169" width="64.036" height="15.677" style="fill:rgb(197,141,21);"/>
        <rect x="400.093" y="260.169" width="64.036" height="15.677" style="fill:rgb(197,141,21);"/>
        <path d="M471.974,324.212L455.964,324.212L455.964,284.186L408.266,284.186L408.266,324.212L392.255,324.212L392.255,452.295L375.911,452.295L375.911,324.212L359.901,324.212L359.901,284.186L312.203,284.186L312.203,324.212L296.192,324.212L296.192,452.295L215.807,452.295L215.807,396.092C215.807,385.687 209.107,376.823 199.796,373.573L199.796,339.889L215.974,339.889L215.974,324.212L167.942,324.212L167.942,339.889L184.119,339.889L184.119,373.573C174.809,376.823 168.108,385.687 168.108,396.092L168.108,452.295L143.76,452.295L143.76,396.092C143.76,385.687 137.06,376.823 127.749,373.573L127.749,339.889L143.926,339.889L143.926,324.212L95.895,324.212L95.895,339.889L112.073,339.889L112.073,373.573C102.763,376.823 96.062,385.687 96.062,396.092L96.062,452.295L71.714,452.295L71.714,396.092C71.714,385.687 65.014,376.823 55.703,373.573L55.703,339.889L71.881,339.889L71.881,324.212L23.849,324.212L23.849,339.889L40.026,339.889L40.026,373.573C30.716,376.823 24.016,385.687 24.016,396.092L24.016,452.295L0,452.295L0,507.998L512,507.998L512,452.295L471.974,452.295L471.974,324.212ZM407.933,339.889L423.944,339.889L423.944,299.863L440.288,299.863L440.288,339.889L456.298,339.889L456.298,356.233L407.934,356.233L407.934,339.889L407.933,339.889ZM407.933,371.91L456.297,371.91L456.297,452.295L407.933,452.295L407.933,371.91ZM311.869,339.889L327.881,339.889L327.881,299.863L344.225,299.863L344.225,339.889L360.235,339.889L360.235,391.403C354.387,384.582 345.719,380.248 336.052,380.248C326.384,380.248 317.716,384.582 311.869,391.403L311.869,339.889ZM352.229,412.102C352.229,421.022 344.973,428.28 336.051,428.28C327.132,428.28 319.874,421.022 319.874,412.102C319.874,403.182 327.13,395.925 336.051,395.925C344.973,395.925 352.229,403.182 352.229,412.102ZM311.87,432.8C317.717,439.621 326.385,443.956 336.053,443.956C345.72,443.956 354.388,439.622 360.236,432.801L360.236,452.294L311.872,452.294L311.872,432.8L311.87,432.8ZM183.787,396.092C183.787,391.585 187.452,387.92 191.959,387.92C196.466,387.92 200.131,391.585 200.131,396.092L200.131,452.295L183.787,452.295L183.787,396.092ZM111.74,396.092C111.74,391.585 115.405,387.92 119.912,387.92C124.419,387.92 128.084,391.585 128.084,396.092L128.084,452.295L111.74,452.295L111.74,396.092ZM39.694,396.092C39.694,391.585 43.359,387.92 47.866,387.92C52.372,387.92 56.037,391.585 56.037,396.092L56.037,452.295L39.694,452.295L39.694,396.092ZM496.323,467.972L496.323,492.321L15.677,492.321L15.677,467.972L496.323,467.972Z" style="fill:rgb(197,141,21);fill-rule:nonzero;"/>
    </g>
</svg>
