<?xml version="1.0" encoding="UTF-8" standalone="no"?>
<!DOCTYPE svg PUBLIC "-//W3C//DTD SVG 1.1//EN" "http://www.w3.org/Graphics/SVG/1.1/DTD/svg11.dtd">
<svg width="100%" height="100%" viewBox="0 0 200 54" version="1.1" xmlns="http://www.w3.org/2000/svg" xmlns:xlink="http://www.w3.org/1999/xlink" xml:space="preserve" xmlns:serif="http://www.serif.com/" style="fill-rule:evenodd;clip-rule:evenodd;stroke-linejoin:round;stroke-miterlimit:2;">
    <g id="Calque1">
    </g>
    <g id="Calque2">
        <g transform="matrix(0.868371,0,0,0.868371,-19.921,-10.2629)">
            <text x="25.589px" y="40.526px" style="font-family:'BookAntiqua', 'Book Antiqua', serif;font-size:30.48px;fill:white;">L</text>
            <text x="44.207px" y="40.526px" style="font-family:'BookAntiqua', 'Book Antiqua', serif;font-size:36.376px;fill:white;">&apos;</text>
            <text x="51.774px" y="40.526px" style="font-family:'BookAntiqua', 'Book Antiqua', serif;font-size:36.376px;fill:white;">O<tspan x="85.099px 115.618px 146.137px 163.122px 190.142px 223.166px " y="40.526px 40.526px 40.526px 40.526px 40.526px 40.526px ">CCITAN</tspan></text>
        </g>
        <g transform="matrix(0.657096,0,0,0.657096,-2.12013,5.75639)">
            <text x="9.884px" y="65.712px" style="font-family:'BookAntiqua', 'Book Antiqua', serif;font-size:20.58px;fill:white;">R<tspan x="29.806px 48.551px 65.528px 84.314px 106.496px 128.679px 148.6px 170.782px 194.06px 212.846px 224.165px 237.192px 248.512px 267.257px 289.44px " y="65.712px 65.712px 65.712px 65.712px 65.712px 65.712px 65.712px 65.712px 65.712px 65.712px 65.712px 65.712px 65.712px 65.712px 65.712px ">ESTAURANT - BAR</tspan></text>
        </g>
        <g transform="matrix(0.968402,0,0,0.968402,-5.87058,-1.42142)">
            <text x="10.133px" y="35.409px" style="font-family:'Bauhaus93', 'Bauhaus 93', fantasy;font-size:8.161px;fill:white;">.<tspan x="16.078px 22.022px 27.967px 33.912px 39.857px 45.802px 51.746px 57.691px 63.636px 69.581px 75.526px 81.47px 87.415px 93.36px 99.305px 105.25px 111.194px 117.139px 123.084px 129.029px 134.973px 140.918px 146.863px 152.808px 158.753px 164.697px 170.642px 176.587px 182.532px 188.477px 194.421px 200.366px 206.311px " y="35.409px 35.409px 35.409px 35.409px 35.409px 35.409px 35.409px 35.409px 35.409px 35.409px 35.409px 35.409px 35.409px 35.409px 35.409px 35.409px 35.409px 35.409px 35.409px 35.409px 35.409px 35.409px 35.409px 35.409px 35.409px 35.409px 35.409px 35.409px 35.409px 35.409px 35.409px 35.409px 35.409px ">.................................</tspan></text>
        </g>
    </g>
</svg>
