<?xml version="1.0" encoding="UTF-8" standalone="no"?>
<!DOCTYPE svg PUBLIC "-//W3C//DTD SVG 1.1//EN" "http://www.w3.org/Graphics/SVG/1.1/DTD/svg11.dtd">
<svg width="100%" height="100%" viewBox="0 0 54 54" version="1.1" xmlns="http://www.w3.org/2000/svg" xmlns:xlink="http://www.w3.org/1999/xlink" xml:space="preserve" xmlns:serif="http://www.serif.com/" style="fill-rule:evenodd;clip-rule:evenodd;stroke-linejoin:round;stroke-miterlimit:2;">
    <path d="M53.364,40.908C51.356,37.112 44.383,32.996 44.076,32.816C43.18,32.306 42.245,32.036 41.37,32.036C40.069,32.036 39.004,32.632 38.359,33.716C37.339,34.936 36.074,36.362 35.767,36.583C33.391,38.195 31.531,38.012 29.473,35.954L17.987,24.467C15.942,22.422 15.754,20.539 17.355,18.176C17.579,17.867 19.005,16.601 20.225,15.58C21.003,15.117 21.537,14.429 21.771,13.585C22.082,12.462 21.853,11.141 21.119,9.854C20.946,9.558 16.828,2.584 13.034,0.577C12.326,0.202 11.528,0.004 10.728,0.004C9.41,0.004 8.17,0.518 7.238,1.449L4.7,3.986C0.686,7.999 -0.767,12.548 0.379,17.506C1.335,21.638 4.121,26.035 8.661,30.574L23.366,45.279C29.112,51.025 34.59,53.939 39.648,53.939L39.649,53.939C43.369,53.939 46.837,52.358 49.954,49.241L52.491,46.704C54.033,45.163 54.383,42.833 53.364,40.908Z" style="fill:rgb(184,49,62);fill-rule:nonzero;"/>
</svg>
