<?xml version="1.0" encoding="UTF-8" standalone="no"?>
<!DOCTYPE svg PUBLIC "-//W3C//DTD SVG 1.1//EN" "http://www.w3.org/Graphics/SVG/1.1/DTD/svg11.dtd">
<svg width="100%" height="100%" viewBox="0 0 32 32" version="1.1" xmlns="http://www.w3.org/2000/svg" xmlns:xlink="http://www.w3.org/1999/xlink" xml:space="preserve" xmlns:serif="http://www.serif.com/" style="fill-rule:evenodd;clip-rule:evenodd;stroke-linejoin:round;stroke-miterlimit:2;">
    <path d="M0,6L0,8L19,8L19,23L12.844,23C12.398,21.281 10.852,20 9,20C7.148,20 5.602,21.281 5.156,23L4,23L4,18L2,18L2,25L5.156,25C5.602,26.719 7.148,28 9,28C10.852,28 12.398,26.719 12.844,25L21.156,25C21.602,26.719 23.148,28 25,28C26.852,28 28.398,26.719 28.844,25L32,25L32,16.844L31.938,16.688L29.938,10.688L29.719,10L21,10L21,6L0,6ZM1,10L1,12L10,12L10,10L1,10ZM21,12L28.281,12L30,17.125L30,23L28.844,23C28.398,21.281 26.852,20 25,20C23.148,20 21.602,21.281 21.156,23L21,23L21,12ZM2,14L2,16L8,16L8,14L2,14ZM9,22C10.117,22 11,22.883 11,24C11,25.117 10.117,26 9,26C7.883,26 7,25.117 7,24C7,22.883 7.883,22 9,22ZM25,22C26.117,22 27,22.883 27,24C27,25.117 26.117,26 25,26C23.883,26 23,25.117 23,24C23,22.883 23.883,22 25,22Z" style="fill:rgb(197,141,21);fill-rule:nonzero;"/>
</svg>
